<svg width="16" height="16" viewBox="0 0 16 16" fill="none" xmlns="http://www.w3.org/2000/svg">
<path d="M12.6667 7.33341H8.66669V3.33341C8.66669 3.1566 8.59645 2.98703 8.47142 2.86201C8.3464 2.73699 8.17683 2.66675 8.00002 2.66675C7.82321 2.66675 7.65364 2.73699 7.52862 2.86201C7.40359 2.98703 7.33335 3.1566 7.33335 3.33341V7.33341H3.33335C3.15654 7.33341 2.98697 7.40365 2.86195 7.52868C2.73693 7.6537 2.66669 7.82327 2.66669 8.00008C2.66669 8.17689 2.73693 8.34646 2.86195 8.47149C2.98697 8.59651 3.15654 8.66675 3.33335 8.66675H7.33335V12.6667C7.33335 12.8436 7.40359 13.0131 7.52862 13.1382C7.65364 13.2632 7.82321 13.3334 8.00002 13.3334C8.17683 13.3334 8.3464 13.2632 8.47142 13.1382C8.59645 13.0131 8.66669 12.8436 8.66669 12.6667V8.66675H12.6667C12.8435 8.66675 13.0131 8.59651 13.1381 8.47149C13.2631 8.34646 13.3334 8.17689 13.3334 8.00008C13.3334 7.82327 13.2631 7.6537 13.1381 7.52868C13.0131 7.40365 12.8435 7.33341 12.6667 7.33341Z" fill="#959595"/>
</svg>
