<svg width="20" height="20" viewBox="0 0 20 20" fill="none" xmlns="http://www.w3.org/2000/svg">
<path d="M15.8334 9.16658H10.8334V4.16659C10.8334 3.94557 10.7456 3.73361 10.5893 3.57733C10.433 3.42105 10.2211 3.33325 10 3.33325C9.77903 3.33325 9.56707 3.42105 9.41079 3.57733C9.2545 3.73361 9.16671 3.94557 9.16671 4.16659V9.16658H4.16671C3.94569 9.16658 3.73373 9.25438 3.57745 9.41066C3.42117 9.56694 3.33337 9.7789 3.33337 9.99992C3.33337 10.2209 3.42117 10.4329 3.57745 10.5892C3.73373 10.7455 3.94569 10.8333 4.16671 10.8333H9.16671V15.8333C9.16671 16.0543 9.2545 16.2662 9.41079 16.4225C9.56707 16.5788 9.77903 16.6666 10 16.6666C10.2211 16.6666 10.433 16.5788 10.5893 16.4225C10.7456 16.2662 10.8334 16.0543 10.8334 15.8333V10.8333H15.8334C16.0544 10.8333 16.2663 10.7455 16.4226 10.5892C16.5789 10.4329 16.6667 10.2209 16.6667 9.99992C16.6667 9.7789 16.5789 9.56694 16.4226 9.41066C16.2663 9.25438 16.0544 9.16658 15.8334 9.16658Z" fill="white"/>
</svg>
