<svg width="22" height="22" viewBox="0 0 22 22" fill="none" xmlns="http://www.w3.org/2000/svg">
<g clip-path="url(#clip0_5944_76490)">
<path d="M20.1667 13.7501H18.3334V11.0001C18.3334 10.757 18.2368 10.5238 18.0649 10.3519C17.893 10.18 17.6598 10.0834 17.4167 10.0834H11.9167V8.25008H13.75C13.9931 8.25008 14.2263 8.1535 14.3982 7.9816C14.5701 7.80969 14.6667 7.57653 14.6667 7.33341V1.83341C14.6667 1.5903 14.5701 1.35714 14.3982 1.18523C14.2263 1.01333 13.9931 0.916748 13.75 0.916748H8.25002C8.00691 0.916748 7.77375 1.01333 7.60184 1.18523C7.42993 1.35714 7.33335 1.5903 7.33335 1.83341V7.33341C7.33335 7.57653 7.42993 7.80969 7.60184 7.9816C7.77375 8.1535 8.00691 8.25008 8.25002 8.25008H10.0834V10.0834H4.58335C4.34024 10.0834 4.10708 10.18 3.93517 10.3519C3.76326 10.5238 3.66669 10.757 3.66669 11.0001V13.7501H1.83335C1.59024 13.7501 1.35708 13.8467 1.18517 14.0186C1.01326 14.1905 0.916687 14.4236 0.916687 14.6667V20.1667C0.916687 20.4099 1.01326 20.643 1.18517 20.8149C1.35708 20.9868 1.59024 21.0834 1.83335 21.0834H7.33335C7.57647 21.0834 7.80963 20.9868 7.98153 20.8149C8.15344 20.643 8.25002 20.4099 8.25002 20.1667V14.6667C8.25002 14.4236 8.15344 14.1905 7.98153 14.0186C7.80963 13.8467 7.57647 13.7501 7.33335 13.7501H5.50002V11.9167H16.5V13.7501H14.6667C14.4236 13.7501 14.1904 13.8467 14.0185 14.0186C13.8466 14.1905 13.75 14.4236 13.75 14.6667V20.1667C13.75 20.4099 13.8466 20.643 14.0185 20.8149C14.1904 20.9868 14.4236 21.0834 14.6667 21.0834H20.1667C20.4098 21.0834 20.643 20.9868 20.8149 20.8149C20.9868 20.643 21.0834 20.4099 21.0834 20.1667V14.6667C21.0834 14.4236 20.9868 14.1905 20.8149 14.0186C20.643 13.8467 20.4098 13.7501 20.1667 13.7501ZM6.41669 15.5834V19.2501H2.75002V15.5834H6.41669ZM9.16669 6.41675V2.75008H12.8334V6.41675H9.16669ZM19.25 19.2501H15.5834V15.5834H19.25V19.2501Z" fill="white" fill-opacity="0.4"/>
</g>
<defs>
<clipPath id="clip0_5944_76490">
<rect width="22" height="22" fill="white"/>
</clipPath>
</defs>
</svg>
