<svg width="22" height="22" viewBox="0 0 22 22" fill="none" xmlns="http://www.w3.org/2000/svg">
<path d="M11.275 11.2016C11.7641 10.7782 12.1564 10.2546 12.4253 9.66619C12.6942 9.07782 12.8334 8.43849 12.8334 7.79158C12.8334 6.57601 12.3505 5.41022 11.4909 4.55068C10.6314 3.69114 9.4656 3.20825 8.25002 3.20825C7.03444 3.20825 5.86866 3.69114 5.00911 4.55068C4.14957 5.41022 3.66669 6.57601 3.66669 7.79158C3.66668 8.43849 3.80584 9.07782 4.07472 9.66619C4.3436 10.2546 4.73591 10.7782 5.22502 11.2016C3.94182 11.7826 2.85311 12.721 2.08909 13.9044C1.32506 15.0878 0.918036 16.4663 0.916687 17.8749C0.916687 18.118 1.01326 18.3512 1.18517 18.5231C1.35708 18.695 1.59024 18.7916 1.83335 18.7916C2.07647 18.7916 2.30963 18.695 2.48153 18.5231C2.65344 18.3512 2.75002 18.118 2.75002 17.8749C2.75002 16.4162 3.32948 15.0173 4.36093 13.9858C5.39238 12.9544 6.79133 12.3749 8.25002 12.3749C9.70871 12.3749 11.1077 12.9544 12.1391 13.9858C13.1706 15.0173 13.75 16.4162 13.75 17.8749C13.75 18.118 13.8466 18.3512 14.0185 18.5231C14.1904 18.695 14.4236 18.7916 14.6667 18.7916C14.9098 18.7916 15.143 18.695 15.3149 18.5231C15.4868 18.3512 15.5834 18.118 15.5834 17.8749C15.582 16.4663 15.175 15.0878 14.411 13.9044C13.6469 12.721 12.5582 11.7826 11.275 11.2016ZM8.25002 10.5416C7.70612 10.5416 7.17444 10.3803 6.7222 10.0781C6.26997 9.77595 5.91749 9.34646 5.70935 8.84396C5.50121 8.34147 5.44675 7.78853 5.55286 7.25509C5.65897 6.72164 5.92088 6.23164 6.30548 5.84704C6.69007 5.46245 7.18007 5.20054 7.71352 5.09443C8.24697 4.98832 8.7999 5.04278 9.3024 5.25092C9.8049 5.45906 10.2344 5.81153 10.5366 6.26377C10.8387 6.716 11 7.24769 11 7.79158C11 8.52093 10.7103 9.2204 10.1946 9.73613C9.67884 10.2519 8.97937 10.5416 8.25002 10.5416ZM17.1784 10.8349C17.765 10.1743 18.1482 9.35822 18.2818 8.4849C18.4155 7.61157 18.2939 6.71824 17.9316 5.91242C17.5694 5.1066 16.982 4.42265 16.2401 3.94289C15.4982 3.46313 14.6335 3.20802 13.75 3.20825C13.5069 3.20825 13.2737 3.30483 13.1018 3.47674C12.9299 3.64865 12.8334 3.8818 12.8334 4.12492C12.8334 4.36803 12.9299 4.60119 13.1018 4.7731C13.2737 4.94501 13.5069 5.04159 13.75 5.04159C14.4794 5.04159 15.1788 5.33132 15.6946 5.84704C16.2103 6.36277 16.5 7.06224 16.5 7.79158C16.4987 8.27306 16.371 8.74575 16.1297 9.16239C15.8884 9.57903 15.542 9.92502 15.125 10.1658C14.9891 10.2441 14.8756 10.3561 14.7954 10.4909C14.7151 10.6257 14.6708 10.7789 14.6667 10.9358C14.6629 11.0914 14.6987 11.2454 14.7709 11.3833C14.843 11.5212 14.9492 11.6385 15.0792 11.7241L15.4367 11.9624L15.5559 12.0266C16.6608 12.5507 17.593 13.3796 18.2426 14.4157C18.8922 15.4518 19.2322 16.652 19.2225 17.8749C19.2225 18.118 19.3191 18.3512 19.491 18.5231C19.6629 18.695 19.8961 18.7916 20.1392 18.7916C20.3823 18.7916 20.6155 18.695 20.7874 18.5231C20.9593 18.3512 21.0559 18.118 21.0559 17.8749C21.0633 16.4682 20.711 15.083 20.0324 13.8508C19.3537 12.6186 18.3713 11.5805 17.1784 10.8349Z" fill="white" fill-opacity="0.4"/>
</svg>
