<svg width="18" height="18" viewBox="0 0 18 18" fill="none" xmlns="http://www.w3.org/2000/svg">
<path d="M11.7825 9.53247C12.5178 8.95397 13.0545 8.16066 13.3179 7.26293C13.5814 6.36519 13.5584 5.40767 13.2523 4.52357C12.9462 3.63947 12.3722 2.87277 11.6101 2.33011C10.8479 1.78746 9.93559 1.49585 9 1.49585C8.06441 1.49585 7.15208 1.78746 6.38995 2.33011C5.62781 2.87277 5.05376 3.63947 4.74766 4.52357C4.44156 5.40767 4.41863 6.36519 4.68207 7.26293C4.94551 8.16066 5.4822 8.95397 6.2175 9.53247C4.95756 10.0373 3.85821 10.8745 3.03667 11.9549C2.21512 13.0353 1.70217 14.3185 1.5525 15.6675C1.54166 15.766 1.55033 15.8656 1.57802 15.9608C1.6057 16.0559 1.65185 16.1447 1.71383 16.222C1.83901 16.3781 2.02109 16.4781 2.22 16.5C2.41891 16.5219 2.61837 16.4638 2.77449 16.3386C2.93062 16.2135 3.03062 16.0314 3.0525 15.8325C3.21719 14.3664 3.91626 13.0123 5.01616 12.0291C6.11606 11.0458 7.53967 10.5022 9.015 10.5022C10.4903 10.5022 11.9139 11.0458 13.0138 12.0291C14.1137 13.0123 14.8128 14.3664 14.9775 15.8325C14.9979 16.0168 15.0858 16.187 15.2243 16.3102C15.3628 16.4335 15.5421 16.5011 15.7275 16.5H15.81C16.0066 16.4774 16.1863 16.3779 16.3099 16.2234C16.4335 16.0689 16.4911 15.8717 16.47 15.675C16.3196 14.3221 15.8039 13.0357 14.9781 11.9536C14.1524 10.8715 13.0477 10.0346 11.7825 9.53247ZM9 8.99997C8.40665 8.99997 7.82663 8.82403 7.33329 8.49438C6.83994 8.16474 6.45542 7.6962 6.22836 7.14802C6.0013 6.59984 5.94189 5.99664 6.05764 5.4147C6.1734 4.83276 6.45912 4.29821 6.87868 3.87865C7.29823 3.45909 7.83278 3.17337 8.41473 3.05762C8.99667 2.94186 9.59987 3.00127 10.148 3.22833C10.6962 3.4554 11.1648 3.83991 11.4944 4.33326C11.8241 4.82661 12 5.40663 12 5.99997C12 6.79562 11.6839 7.55868 11.1213 8.12129C10.5587 8.6839 9.79565 8.99997 9 8.99997Z" fill="#959595"/>
</svg>
