<svg width="20" height="20" viewBox="0 0 20 20" fill="none" xmlns="http://www.w3.org/2000/svg">
<path d="M17.5 1.66675H2.49996C2.27895 1.66675 2.06698 1.75455 1.9107 1.91083C1.75442 2.06711 1.66663 2.27907 1.66663 2.50008V17.5001C1.66663 17.7211 1.75442 17.9331 1.9107 18.0893C2.06698 18.2456 2.27895 18.3334 2.49996 18.3334H17.5C17.721 18.3334 17.9329 18.2456 18.0892 18.0893C18.2455 17.9331 18.3333 17.7211 18.3333 17.5001V2.50008C18.3333 2.27907 18.2455 2.06711 18.0892 1.91083C17.9329 1.75455 17.721 1.66675 17.5 1.66675ZM9.16663 16.6667H3.33329V8.33342H9.16663V16.6667ZM16.6666 16.6667H10.8333V8.33342H16.6666V16.6667ZM16.6666 6.66675H3.33329V3.33341H16.6666V6.66675Z" fill="#959595"/>
</svg>
